.
 
http://www.scenetime.com    -   SceneTime [ We been having it ] !!!


How come you press harder on a remote control when you know the battery is dead? so you better seed to get speed ;)

        Seed back for speed


...................................NFO:.................................................::::::::::::::Enjoy:Another:Release:From:TDP::::::::::::::

[IMG]http://lookpic.com/c1/i2/906/IA2ughbV.jpeg[/IMG]

TiTLE.........: Paranoid.Activity.2.2011.DVDRip.AC3-TDP
RUNTiME.......: 1h 18mn
FORMAT........: XviD
RAR COUNT.....: 50x15MB
SOURCE .......: Paranoid.Activity.2.2011.NTSC.DVDR-STOCK
GENRE.........: Horror 
AUDIO.........: English 
SUBTITLES.....: None
SAMPEL........: YES
RELEASE DATE..: 03-07-2011

IMDB : http://www.imdb.com/title/tt1754334/

Plot :
Three college friends move into a small rental house
in the middle of a cold and dark Alaskan winter
During a house warming party, a psychic medium calls
forth a ghostly presence that increasingly becomes
hostile toward the three. With very few options on
the table, they must decide to confront the hostile
presence, or die
 


General

Complete name                    : Paranoid.Activity.2.2011.DVDRip.AC3-TDP
Format                           : AVI
Format/Info                      : Audio Video Interleave
File size                        : 703 MiB
Duration                         : 1h 18mn
Overall bit rate                 : 1 260 Kbps
Writing application              : MEncoder version 4.0.0 building on 20100917

Video

Format                           : MPEG-4 Visual
Format profile                   : Simple@L1
Format settings, BVOP            : No
Format settings, QPel            : No
Format settings, GMC             : No warppoints
Format settings, Matrix          : Default (H.263)
Codec ID                         : DX50
Codec ID/Hint                    : DivX 5
Duration                         : 1h 18mn
Bit rate                         : 1 062 Kbps
Width                            : 720 pixels
Height                           : 404 pixels
Display aspect ratio             : 16:9
Frame rate                       : 29.970 fps
Color space                      : YUV
Chroma subsampling               : 4:2:0
Bit depth                        : 8 bits
Scan type                        : Progressive
Compression mode                 : Lossy
Bits/(Pixel*Frame)               : 0.122
Stream size                      : 592 MiB (84%)
Writing library                  : DigiArty AV Encoder Core

Audio

Format                           : AC-3
Format/Info                      : Audio Coding 3
Mode extension                   : CM (complete main)
Codec ID                         : 2000
Duration                         : 1h 18mn
Bit rate mode                    : Constant
Bit rate                         : 192 Kbps
Channel(s)                       : 2 channels
Channel positions                : Front: L R
Sampling rate                    : 48.0 KHz
Bit depth                        : 16 bits
Compression mode                 : Lossy
Stream size                      : 107 MiB (15%)
Alignment                        : Split accross interleaves
Interleave, duration             : 500 ms (14.98 video frames)
Interleave, preload duration     : 500 ms



GREETS:

IMAGiNE,FLAWL3SS,ViSiON,FUSiON,Rx,CM8,SecretMyth,BirdFlu,ELEKTRI4KA,Serenity,INK,SUBLIME
And to all the other p2p grps past and present

Looking for : SYNCERS, CAMMERS, SEED/RiPBOXES for group use
CAPPERS, SiLVER SUPPLiERS, and R1-R2-R4 PRE-RETAiL SOURCE SUPPLIERS!
Always looking for CAM+LiNE+SCR+DVDSCR+BRSCR+RUS DVD+PRERETAIL BR & DVD
If you'd like to help, feel free to contact us at thedanishpirates@gmail.com